<?xml version="1.0" encoding="UTF-8" standalone="no"?><svg xmlns="http://www.w3.org/2000/svg" xmlns:xlink="http://www.w3.org/1999/xlink" contentScriptType="application/ecmascript" contentStyleType="text/css" height="501px" preserveAspectRatio="none" style="width:395px;height:501px;background:#FFFFFF;" version="1.1" viewBox="0 0 395 501" width="395px" zoomAndPan="magnify"><defs><filter height="300%" id="f1m81dpujk11qw" width="300%" x="-1" y="-1"><feGaussianBlur result="blurOut" stdDeviation="2.0"/><feColorMatrix in="blurOut" result="blurOut2" type="matrix" values="0 0 0 0 0 0 0 0 0 0 0 0 0 0 0 0 0 0 .4 0"/><feOffset dx="4.0" dy="4.0" in="blurOut2" result="blurOut3"/><feBlend in="SourceGraphic" in2="blurOut3" mode="normal"/></filter></defs><g><line style="stroke:#A80036;stroke-width:1.0;stroke-dasharray:5.0,5.0;" x1="38" x2="38" y1="88.7999" y2="416.4"/><line style="stroke:#A80036;stroke-width:1.0;stroke-dasharray:5.0,5.0;" x1="99" x2="99" y1="88.7999" y2="416.4"/><line style="stroke:#A80036;stroke-width:1.0;stroke-dasharray:5.0,5.0;" x1="228" x2="228" y1="88.7999" y2="416.4"/><line style="stroke:#A80036;stroke-width:1.0;stroke-dasharray:5.0,5.0;" x1="344" x2="344" y1="161.2999" y2="416.4"/><text fill="#000000" font-family="sans-serif" font-size="14" lengthAdjust="spacing" textLength="61" x="5" y="85.9999">Developer</text><ellipse cx="38.5" cy="15" fill="#FEFECE" filter="url(#f1m81dpujk11qw)" rx="8" ry="8" style="stroke:#A80036;stroke-width:2.0;"/><path d="M38.5,23 L38.5,50 M25.5,31 L51.5,31 M38.5,50 L25.5,65 M38.5,50 L51.5,65 " fill="none" filter="url(#f1m81dpujk11qw)" style="stroke:#A80036;stroke-width:2.0;"/><text fill="#000000" font-family="sans-serif" font-size="14" lengthAdjust="spacing" textLength="61" x="5" y="429.3999">Developer</text><ellipse cx="38.5" cy="442.1999" fill="#FEFECE" filter="url(#f1m81dpujk11qw)" rx="8" ry="8" style="stroke:#A80036;stroke-width:2.0;"/><path d="M38.5,450.1999 L38.5,477.1999 M25.5,458.1999 L51.5,458.1999 M38.5,477.1999 L25.5,492.1999 M38.5,477.1999 L51.5,492.1999 " fill="none" filter="url(#f1m81dpujk11qw)" style="stroke:#A80036;stroke-width:2.0;"/><text fill="#000000" font-family="sans-serif" font-size="14" lengthAdjust="spacing" textLength="29" x="82" y="85.9999">User</text><ellipse cx="99.5" cy="15" fill="#FEFECE" filter="url(#f1m81dpujk11qw)" rx="8" ry="8" style="stroke:#A80036;stroke-width:2.0;"/><path d="M99.5,23 L99.5,50 M86.5,31 L112.5,31 M99.5,50 L86.5,65 M99.5,50 L112.5,65 " fill="none" filter="url(#f1m81dpujk11qw)" style="stroke:#A80036;stroke-width:2.0;"/><text fill="#000000" font-family="sans-serif" font-size="14" lengthAdjust="spacing" textLength="29" x="82" y="429.3999">User</text><ellipse cx="99.5" cy="442.1999" fill="#FEFECE" filter="url(#f1m81dpujk11qw)" rx="8" ry="8" style="stroke:#A80036;stroke-width:2.0;"/><path d="M99.5,450.1999 L99.5,477.1999 M86.5,458.1999 L112.5,458.1999 M99.5,477.1999 L86.5,492.1999 M99.5,477.1999 L112.5,492.1999 " fill="none" filter="url(#f1m81dpujk11qw)" style="stroke:#A80036;stroke-width:2.0;"/><rect fill="#FEFECE" filter="url(#f1m81dpujk11qw)" height="30.7999" style="stroke:#A80036;stroke-width:1.5;" width="125" x="164" y="53"/><text fill="#000000" font-family="sans-serif" font-size="14" lengthAdjust="spacing" textLength="111" x="171" y="73.9999">Internet Computer</text><rect fill="#FEFECE" filter="url(#f1m81dpujk11qw)" height="30.7999" style="stroke:#A80036;stroke-width:1.5;" width="125" x="164" y="415.4"/><text fill="#000000" font-family="sans-serif" font-size="14" lengthAdjust="spacing" textLength="111" x="171" y="436.3999">Internet Computer</text><rect fill="#FEFECE" filter="url(#f1m81dpujk11qw)" height="30.7999" style="stroke:#A80036;stroke-width:1.5;" width="78" x="303" y="415.4"/><text fill="#000000" font-family="sans-serif" font-size="14" lengthAdjust="spacing" textLength="64" x="310" y="436.3999">Canister 1</text><polygon fill="#A80036" points="216.5,116.3999,226.5,120.3999,216.5,124.3999,220.5,120.3999" style="stroke:#A80036;stroke-width:1.0;"/><line style="stroke:#A80036;stroke-width:1.0;" x1="38.5" x2="222.5" y1="120.3999" y2="120.3999"/><text fill="#000000" font-family="sans-serif" font-size="13" lengthAdjust="spacing" textLength="129" x="45.5" y="115.7999">/submit create canister</text><polygon fill="#A80036" points="291,146,301,150,291,154,295,150" style="stroke:#A80036;stroke-width:1.0;"/><line style="stroke:#A80036;stroke-width:1.0;" x1="228.5" x2="297" y1="150" y2="150"/><text fill="#000000" font-family="sans-serif" font-size="13" lengthAdjust="spacing" textLength="36" x="235.5" y="145.4">create</text><rect fill="#FEFECE" filter="url(#f1m81dpujk11qw)" height="30.7999" style="stroke:#A80036;stroke-width:1.5;" width="78" x="303" y="128.3999"/><text fill="#000000" font-family="sans-serif" font-size="14" lengthAdjust="spacing" textLength="64" x="310" y="149.3999">Canister 1</text><polygon fill="#A80036" points="49.5,191.7999,39.5,195.7999,49.5,199.7999,45.5,195.7999" style="stroke:#A80036;stroke-width:1.0;"/><line style="stroke:#A80036;stroke-width:1.0;stroke-dasharray:2.0,2.0;" x1="43.5" x2="227.5" y1="195.7999" y2="195.7999"/><text fill="#000000" font-family="sans-serif" font-size="13" lengthAdjust="spacing" textLength="74" x="55.5" y="191.1999">canister-id=1</text><polygon fill="#A80036" points="216.5,221.3999,226.5,225.3999,216.5,229.3999,220.5,225.3999" style="stroke:#A80036;stroke-width:1.0;"/><line style="stroke:#A80036;stroke-width:1.0;" x1="38.5" x2="222.5" y1="225.3999" y2="225.3999"/><text fill="#000000" font-family="sans-serif" font-size="13" lengthAdjust="spacing" textLength="123" x="45.5" y="220.7999">/submit install module</text><polygon fill="#A80036" points="332,250.9999,342,254.9999,332,258.9999,336,254.9999" style="stroke:#A80036;stroke-width:1.0;"/><line style="stroke:#A80036;stroke-width:1.0;" x1="228.5" x2="338" y1="254.9999" y2="254.9999"/><text fill="#000000" font-family="sans-serif" font-size="13" lengthAdjust="spacing" textLength="46" x="235.5" y="250.3999">initialize</text><polygon fill="#A80036" points="216.5,305.5999,226.5,309.5999,216.5,313.5999,220.5,309.5999" style="stroke:#A80036;stroke-width:1.0;"/><line style="stroke:#A80036;stroke-width:1.0;" x1="99.5" x2="222.5" y1="309.5999" y2="309.5999"/><text fill="#000000" font-family="sans-serif" font-size="13" lengthAdjust="spacing" textLength="105" x="106.5" y="304.9999">/submit call “hello”</text><polygon fill="#A80036" points="332,335.1999,342,339.1999,332,343.1999,336,339.1999" style="stroke:#A80036;stroke-width:1.0;"/><line style="stroke:#A80036;stroke-width:1.0;" x1="228.5" x2="338" y1="339.1999" y2="339.1999"/><text fill="#000000" font-family="sans-serif" font-size="13" lengthAdjust="spacing" textLength="27" x="235.5" y="334.5999">hello</text><polygon fill="#A80036" points="239.5,364.7999,229.5,368.7999,239.5,372.7999,235.5,368.7999" style="stroke:#A80036;stroke-width:1.0;"/><line style="stroke:#A80036;stroke-width:1.0;stroke-dasharray:2.0,2.0;" x1="233.5" x2="343" y1="368.7999" y2="368.7999"/><text fill="#000000" font-family="sans-serif" font-size="13" lengthAdjust="spacing" textLength="74" x="245.5" y="364.1999">"Hello world!"</text><polygon fill="#A80036" points="110.5,394.4,100.5,398.4,110.5,402.4,106.5,398.4" style="stroke:#A80036;stroke-width:1.0;"/><line style="stroke:#A80036;stroke-width:1.0;stroke-dasharray:2.0,2.0;" x1="104.5" x2="227.5" y1="398.4" y2="398.4"/><text fill="#000000" font-family="sans-serif" font-size="13" lengthAdjust="spacing" textLength="77" x="116.5" y="393.8">"Hello World!"</text><!--MD5=[e6712fdc2bac6b979d5d7643a3d4b076]
@startuml
actor Developer
actor User
participant "Internet Computer" as IC
participant "Canister 1" as Can1
Developer -> IC : /submit create canister
create Can1
IC -> Can1 : create
Developer <- - IC : canister-id=1
Developer -> IC : /submit install module
IC -> Can1 : initialize
|||
User -> IC : /submit call “hello”
IC -> Can1 : hello
return "Hello world!"
User <- - IC : "Hello World!"
@enduml

PlantUML version 1.2021.16(Wed Dec 08 17:25:22 GMT 2021)
(GPL source distribution)
Java Runtime: OpenJDK Runtime Environment
JVM: OpenJDK 64-Bit Server VM
Default Encoding: UTF-8
Language: en
Country: US
--></g></svg>