<?xml version="1.0" encoding="UTF-8" standalone="no"?><svg xmlns="http://www.w3.org/2000/svg" xmlns:xlink="http://www.w3.org/1999/xlink" contentScriptType="application/ecmascript" contentStyleType="text/css" height="637px" preserveAspectRatio="none" style="width:401px;height:637px;background:#FFFFFF;" version="1.1" viewBox="0 0 401 637" width="401px" zoomAndPan="magnify"><defs><filter height="300%" id="f16qfyiu8b6w38" width="300%" x="-1" y="-1"><feGaussianBlur result="blurOut" stdDeviation="2.0"/><feColorMatrix in="blurOut" result="blurOut2" type="matrix" values="0 0 0 0 0 0 0 0 0 0 0 0 0 0 0 0 0 0 .4 0"/><feOffset dx="4.0" dy="4.0" in="blurOut2" result="blurOut3"/><feBlend in="SourceGraphic" in2="blurOut3" mode="normal"/></filter></defs><g><ellipse cx="313" cy="16" fill="#000000" filter="url(#f16qfyiu8b6w38)" rx="10" ry="10" style="stroke:none;stroke-width:1.0;"/><rect fill="#DDDDDD" filter="url(#f16qfyiu8b6w38)" height="34.4001" rx="12.5" ry="12.5" style="stroke:#A80036;stroke-width:1.5;" width="108" x="259" y="66"/><text fill="#000000" font-family="sans-serif" font-size="12" lengthAdjust="spacing" textLength="88" x="269" y="88.0001">User creates call</text><rect fill="#DDDDDD" filter="url(#f16qfyiu8b6w38)" height="48.8002" rx="12.5" ry="12.5" style="stroke:#A80036;stroke-width:1.5;" width="123" x="251.5" y="140"/><text fill="#000000" font-family="sans-serif" font-size="12" lengthAdjust="spacing" textLength="93" x="266.5" y="162.0001">Submitted to node</text><text fill="#000000" font-family="sans-serif" font-size="12" lengthAdjust="spacing" textLength="103" x="261.5" y="176.4002">(with 202 response)</text><rect fill="#FEFECE" filter="url(#f16qfyiu8b6w38)" height="34.4001" rx="12.5" ry="12.5" style="stroke:#A80036;stroke-width:1.5;" width="64" x="239" y="229"/><text fill="#000000" font-family="sans-serif" font-size="12" lengthAdjust="spacing" textLength="44" x="249" y="251.0001">received</text><rect fill="#FEFECE" filter="url(#f16qfyiu8b6w38)" height="34.4001" rx="12.5" ry="12.5" style="stroke:#A80036;stroke-width:1.5;" width="77" x="132.5" y="303"/><text fill="#000000" font-family="sans-serif" font-size="12" lengthAdjust="spacing" textLength="57" x="142.5" y="325.0001">processing</text><polygon fill="#FEFECE" filter="url(#f16qfyiu8b6w38)" points="155,377,167,389,155,401,143,389,155,377" style="stroke:#A80036;stroke-width:1.5;"/><rect fill="#FEFECE" filter="url(#f16qfyiu8b6w38)" height="34.4001" rx="12.5" ry="12.5" style="stroke:#A80036;stroke-width:1.5;" width="56" x="7" y="441"/><text fill="#000000" font-family="sans-serif" font-size="12" lengthAdjust="spacing" textLength="36" x="17" y="463.0001">replied</text><rect fill="#FEFECE" filter="url(#f16qfyiu8b6w38)" height="34.4001" rx="12.5" ry="12.5" style="stroke:#A80036;stroke-width:1.5;" width="45" x="183.5" y="515"/><text fill="#000000" font-family="sans-serif" font-size="12" lengthAdjust="spacing" textLength="25" x="193.5" y="537.0001">done</text><rect fill="#FEFECE" filter="url(#f16qfyiu8b6w38)" height="34.4001" rx="12.5" ry="12.5" style="stroke:#A80036;stroke-width:1.5;" width="113" x="83.5" y="441"/><text fill="#000000" font-family="sans-serif" font-size="12" lengthAdjust="spacing" textLength="93" x="93.5" y="463.0001">rejected (canister)</text><rect fill="#FEFECE" filter="url(#f16qfyiu8b6w38)" height="34.4001" rx="12.5" ry="12.5" style="stroke:#A80036;stroke-width:1.5;" width="109" x="216.5" y="441"/><text fill="#000000" font-family="sans-serif" font-size="12" lengthAdjust="spacing" textLength="89" x="226.5" y="463.0001">rejected (system)</text><rect fill="#DDDDDD" filter="url(#f16qfyiu8b6w38)" height="34.4001" rx="12.5" ry="12.5" style="stroke:#A80036;stroke-width:1.5;" width="56" x="221" y="589"/><text fill="#000000" font-family="sans-serif" font-size="12" lengthAdjust="spacing" textLength="36" x="231" y="611.0001">pruned</text><rect fill="#DDDDDD" filter="url(#f16qfyiu8b6w38)" height="34.4001" rx="12.5" ry="12.5" style="stroke:#A80036;stroke-width:1.5;" width="64" x="323" y="229"/><text fill="#000000" font-family="sans-serif" font-size="12" lengthAdjust="spacing" textLength="44" x="333" y="251.0001">dropped</text><!--MD5=[7080520fc9aba096907a7cc68c6020a8]
link start to User creates call--><path d="M313,26.04 C313,34.93 313,48.84 313,60.57 " fill="none" id="start-to-User creates call" style="stroke:#A80036;stroke-width:1.0;"/><polygon fill="#A80036" points="313,65.78,317,56.78,313,60.78,309,56.78,313,65.78" style="stroke:#A80036;stroke-width:1.0;"/><!--MD5=[6847aa747cf1df7d7cc9278bd3a1a17c]
link User creates call to submit--><path d="M313,100.09 C313,110 313,123.01 313,134.66 " fill="none" id="User creates call-to-submit" style="stroke:#A80036;stroke-width:1.0;"/><polygon fill="#A80036" points="313,139.9,317,130.9,313,134.9,309,130.9,313,139.9" style="stroke:#A80036;stroke-width:1.0;"/><!--MD5=[37eccb90c49881542815b5219fe4c9f8]
link submit to received--><path d="M300.4,189.35 C294.48,200.56 287.49,213.78 281.82,224.53 " fill="none" id="submit-to-received" style="stroke:#A80036;stroke-width:1.0;"/><polygon fill="#A80036" points="279.47,228.97,287.2071,222.8759,281.8029,224.5476,280.1312,219.1434,279.47,228.97" style="stroke:#A80036;stroke-width:1.0;"/><!--MD5=[21ccd5d4cf2a3cefe97f1875ff00eb95]
link received to processing--><path d="M248.31,263.34 C233.24,274.18 213.41,288.47 197.6,299.85 " fill="none" id="received-to-processing" style="stroke:#A80036;stroke-width:1.0;"/><polygon fill="#A80036" points="193.26,302.97,202.8986,300.9458,197.3141,300.0436,198.2163,294.4591,193.26,302.97" style="stroke:#A80036;stroke-width:1.0;"/><!--MD5=[923e9cb89f8c670b88e4b8596b88a168]
link processing to X--><path d="M167.13,337.22 C164.42,348.53 160.86,363.47 158.29,374.21 " fill="none" id="processing-to-X" style="stroke:#A80036;stroke-width:1.0;"/><polygon fill="#A80036" points="157.12,379.12,163.0917,371.2881,158.2755,374.2554,155.3082,369.4392,157.12,379.12" style="stroke:#A80036;stroke-width:1.0;"/><text fill="#000000" font-family="sans-serif" font-size="11" lengthAdjust="spacing" textLength="0" x="157.5153" y="366.7414"/><!--MD5=[18204573050794c303a4b9b101f0a8a7]
link X to replied--><path d="M147.85,393.99 C132.45,402.59 95.28,423.34 67.79,438.69 " fill="none" id="X-to-replied" style="stroke:#A80036;stroke-width:1.0;"/><polygon fill="#A80036" points="63.12,441.3,72.9265,440.3877,67.4813,438.8548,69.0142,433.4096,63.12,441.3" style="stroke:#A80036;stroke-width:1.0;"/><!--MD5=[22a31d677cf86beba5e1eb2809160e79]
link replied to done--><path d="M63.24,470.89 C95.2,484.35 146.93,506.13 178.56,519.45 " fill="none" id="replied-to-done" style="stroke:#A80036;stroke-width:1.0;"/><polygon fill="#A80036" points="183.46,521.51,176.7255,514.3235,178.854,519.5646,173.6128,521.6931,183.46,521.51" style="stroke:#A80036;stroke-width:1.0;"/><!--MD5=[0c3ba98dae1e16ca7d3653a55a56fd7e]
link X to rejected (canister)--><path d="M152.98,399.04 C150.88,408.41 147.52,423.41 144.75,435.8 " fill="none" id="X-to-rejected (canister)" style="stroke:#A80036;stroke-width:1.0;"/><polygon fill="#A80036" points="143.6,440.93,149.4571,433.012,144.6847,436.0491,141.6476,431.2766,143.6,440.93" style="stroke:#A80036;stroke-width:1.0;"/><!--MD5=[2db836997978031db47174a205a74f16]
link rejected (canister) to done--><path d="M154.98,475.34 C164.68,485.92 177.38,499.78 187.69,511.02 " fill="none" id="rejected (canister)-to-done" style="stroke:#A80036;stroke-width:1.0;"/><polygon fill="#A80036" points="191.08,514.73,187.9569,505.3894,187.7053,511.0407,182.054,510.789,191.08,514.73" style="stroke:#A80036;stroke-width:1.0;"/><!--MD5=[a3a4fd2a1a8dab03cd2ad77504be0f70]
link X to rejected (system)--><path d="M162.26,394.19 C177.26,402.86 212.49,423.21 238.82,438.41 " fill="none" id="X-to-rejected (system)" style="stroke:#A80036;stroke-width:1.0;"/><polygon fill="#A80036" points="243.29,440.99,237.497,433.025,238.9603,438.4893,233.4959,439.9526,243.29,440.99" style="stroke:#A80036;stroke-width:1.0;"/><!--MD5=[c643f185255e55a20d42eb47860e1da1]
link received to rejected (system)--><path d="M271,263.13 C271,300.62 271,393.61 271,435.7 " fill="none" id="received-to-rejected (system)" style="stroke:#A80036;stroke-width:1.0;"/><polygon fill="#A80036" points="271,440.82,275,431.82,271,435.82,267,431.82,271,440.82" style="stroke:#A80036;stroke-width:1.0;"/><!--MD5=[b3542e9c31393718d4957159ea5f59c3]
link rejected (system) to done--><path d="M256.25,475.34 C246.78,485.83 234.4,499.54 224.3,510.73 " fill="none" id="rejected (system)-to-done" style="stroke:#A80036;stroke-width:1.0;"/><polygon fill="#A80036" points="220.69,514.73,229.6924,510.7353,224.0427,511.0206,223.7574,505.371,220.69,514.73" style="stroke:#A80036;stroke-width:1.0;"/><!--MD5=[a201e266a9f042504a4b27d1ce93f26d]
link received to pruned--><path d="M289.24,263.26 C314.48,287.65 357,336.39 357,388 C357,388 357,388 357,459 C357,513.16 308.37,560.38 276.37,585.58 " fill="none" id="received-to-pruned" style="stroke:#A80036;stroke-width:1.0;"/><polygon fill="#A80036" points="272.17,588.84,281.7376,586.5031,276.1267,585.7832,276.8467,580.1723,272.17,588.84" style="stroke:#A80036;stroke-width:1.0;"/><!--MD5=[5021923c9e82c45ef250a64dab79444a]
link submit to dropped--><path d="M325.6,189.35 C331.52,200.56 338.51,213.78 344.18,224.53 " fill="none" id="submit-to-dropped" style="stroke:#A80036;stroke-width:1.0;"/><polygon fill="#A80036" points="346.53,228.97,345.8688,219.1434,344.1971,224.5476,338.7929,222.8759,346.53,228.97" style="stroke:#A80036;stroke-width:1.0;"/><!--MD5=[b731e9cfafc3c578ccb6af33811ecc0f]
link done to pruned--><path d="M215.76,549.34 C221.91,559.65 229.93,573.06 236.54,584.14 " fill="none" id="done-to-pruned" style="stroke:#A80036;stroke-width:1.0;"/><polygon fill="#A80036" points="239.28,588.73,238.1035,578.9517,236.7181,584.4362,231.2335,583.0508,239.28,588.73" style="stroke:#A80036;stroke-width:1.0;"/><!--MD5=[8e354f02dfee6a38c1430718dc3d2e5c]
@startuml
(*) - -> "User creates call" #DDDDDD
   - -> "Submitted to node\n(with 202 response)" as submit #DDDDDD
   - -> "received"
   - -> "processing"
if "" as X then
  - -> "replied"
  - -> "done"
  else
  - -> "rejected (canister)"
  - -> "done"

  "X"        - -> "rejected (system)"
  "received" - -> "rejected (system)"
             - -> "done"

  "received" - -> "pruned" #DDDDDD
  "submit" - -> "dropped" #DDDDDD
  "done" - -> "pruned" #DDDDDD

endif
@enduml

PlantUML version 1.2021.16(Wed Dec 08 17:25:22 GMT 2021)
(GPL source distribution)
Java Runtime: OpenJDK Runtime Environment
JVM: OpenJDK 64-Bit Server VM
Default Encoding: UTF-8
Language: en
Country: US
--></g></svg>